<svg width="499" height="387" viewBox="0 0 499 387" fill="none" xmlns="http://www.w3.org/2000/svg">
<path d="M249 367.56C356.083 367.56 442.89 362.492 442.89 356.24C442.89 349.988 356.083 344.92 249 344.92C141.918 344.92 55.1101 349.988 55.1101 356.24C55.1101 362.492 141.918 367.56 249 367.56Z" fill="#F5F5F5"/>
<path d="M156.18 171.82C157.332 172.327 158.551 172.664 159.8 172.82C162.367 173.133 164.963 172.531 167.13 171.12C170.56 168.9 172.64 165.01 172.31 161.43C172.292 161.255 172.21 161.093 172.078 160.977C171.947 160.86 171.776 160.797 171.6 160.8C168.496 160.778 165.425 161.447 162.611 162.758C159.797 164.069 157.31 165.989 155.33 168.38C154.39 164.38 153.56 160.15 152.96 155.79C154.624 157.065 156.58 157.903 158.65 158.23C159.507 158.334 160.375 158.297 161.22 158.12C165.69 157.2 169.22 152.41 172.44 147.36C172.499 147.27 172.539 147.168 172.556 147.061C172.573 146.954 172.568 146.845 172.54 146.74C172.513 146.639 172.463 146.546 172.393 146.468C172.324 146.39 172.237 146.329 172.14 146.29C163.99 142.89 155.35 150.24 152.59 152.89C152.17 149.218 151.947 145.526 151.92 141.83C153.664 142.385 155.455 142.78 157.27 143.01C161.66 143.52 165.35 142.76 167.99 140.72C171.12 138.32 172.57 134.33 172.18 129.2C172.172 129.102 172.143 129.007 172.096 128.92C172.049 128.834 171.984 128.758 171.906 128.698C171.828 128.637 171.738 128.594 171.642 128.57C171.547 128.547 171.447 128.543 171.35 128.56C162.07 129.91 154.94 135.85 151.97 138.71C151.97 138.05 151.97 137.39 152.04 136.71C152.051 136.547 152.005 136.384 151.91 136.25C151.828 134.996 151.468 133.775 150.856 132.676C150.244 131.578 149.394 130.63 148.37 129.9C146.04 128.39 142.78 128.19 138.67 129.29C138.549 129.325 138.437 129.385 138.34 129.466C138.244 129.547 138.165 129.647 138.11 129.76C138.056 129.867 138.027 129.986 138.027 130.105C138.027 130.225 138.056 130.344 138.11 130.45C138.28 130.74 141.87 136.8 148.2 137.55C148.885 137.611 149.575 137.611 150.26 137.55C150.18 139.37 150.15 141.2 150.18 143.03C147.976 141.141 145.387 139.756 142.592 138.972C139.797 138.188 136.865 138.023 134 138.49C133.774 138.527 133.57 138.649 133.43 138.83C133.364 138.918 133.317 139.018 133.293 139.125C133.269 139.232 133.268 139.343 133.29 139.45C134.55 145.64 137.6 149.81 141.45 150.59C141.62 150.59 141.8 150.65 141.99 150.68C143.99 150.91 146.85 150.32 150.33 147.01C150.575 151.24 151.053 155.453 151.76 159.63C148.4 157.46 140.69 153.49 133.83 157.35C133.656 157.443 133.522 157.595 133.454 157.78C133.386 157.964 133.388 158.167 133.46 158.35C136.25 163.99 139.29 166.93 142.77 167.35H142.86C145.76 167.66 148.86 166.22 152.37 162.99C153.16 167.07 154.1 170.99 155.1 174.63C151.86 171.92 147.72 171.8 142.31 174.23C142.192 174.285 142.087 174.365 142.004 174.466C141.921 174.566 141.862 174.684 141.83 174.81C141.799 174.93 141.8 175.057 141.833 175.176C141.866 175.296 141.931 175.404 142.02 175.49C142.25 175.72 146.18 179.49 151.02 180.04C152.869 180.273 154.746 179.949 156.41 179.11C158.394 185.769 160.812 192.289 163.65 198.63C163.707 198.75 163.794 198.852 163.903 198.928C164.012 199.003 164.138 199.049 164.27 199.06C164.448 199.078 164.628 199.046 164.79 198.97C164.996 198.871 165.156 198.696 165.237 198.482C165.319 198.269 165.317 198.032 165.23 197.82C161.494 189.421 158.467 180.724 156.18 171.82Z" fill="#BA8507"/>
<g opacity="0.6">
<path d="M156.18 171.82C157.332 172.327 158.551 172.664 159.8 172.82C162.367 173.133 164.963 172.531 167.13 171.12C170.56 168.9 172.64 165.01 172.31 161.43C172.292 161.255 172.21 161.093 172.078 160.977C171.947 160.86 171.776 160.797 171.6 160.8C168.496 160.778 165.425 161.447 162.611 162.758C159.797 164.069 157.31 165.989 155.33 168.38C154.39 164.38 153.56 160.15 152.96 155.79C154.624 157.065 156.58 157.903 158.65 158.23C159.507 158.334 160.375 158.297 161.22 158.12C165.69 157.2 169.22 152.41 172.44 147.36C172.499 147.27 172.539 147.168 172.556 147.061C172.573 146.954 172.568 146.845 172.54 146.74C172.513 146.639 172.463 146.546 172.393 146.468C172.324 146.39 172.237 146.329 172.14 146.29C163.99 142.89 155.35 150.24 152.59 152.89C152.17 149.218 151.947 145.526 151.92 141.83C153.664 142.385 155.455 142.78 157.27 143.01C161.66 143.52 165.35 142.76 167.99 140.72C171.12 138.32 172.57 134.33 172.18 129.2C172.172 129.102 172.143 129.007 172.096 128.92C172.049 128.834 171.984 128.758 171.906 128.698C171.828 128.637 171.738 128.594 171.642 128.57C171.547 128.547 171.447 128.543 171.35 128.56C162.07 129.91 154.94 135.85 151.97 138.71C151.97 138.05 151.97 137.39 152.04 136.71C152.051 136.547 152.005 136.384 151.91 136.25C151.828 134.996 151.468 133.775 150.856 132.676C150.244 131.578 149.394 130.63 148.37 129.9C146.04 128.39 142.78 128.19 138.67 129.29C138.549 129.325 138.437 129.385 138.34 129.466C138.244 129.547 138.165 129.647 138.11 129.76C138.056 129.867 138.027 129.986 138.027 130.105C138.027 130.225 138.056 130.344 138.11 130.45C138.28 130.74 141.87 136.8 148.2 137.55C148.885 137.611 149.575 137.611 150.26 137.55C150.18 139.37 150.15 141.2 150.18 143.03C147.976 141.141 145.387 139.756 142.592 138.972C139.797 138.188 136.865 138.023 134 138.49C133.774 138.527 133.57 138.649 133.43 138.83C133.364 138.918 133.317 139.018 133.293 139.125C133.269 139.232 133.268 139.343 133.29 139.45C134.55 145.64 137.6 149.81 141.45 150.59C141.62 150.59 141.8 150.65 141.99 150.68C143.99 150.91 146.85 150.32 150.33 147.01C150.575 151.24 151.053 155.453 151.76 159.63C148.4 157.46 140.69 153.49 133.83 157.35C133.656 157.443 133.522 157.595 133.454 157.78C133.386 157.964 133.388 158.167 133.46 158.35C136.25 163.99 139.29 166.93 142.77 167.35H142.86C145.76 167.66 148.86 166.22 152.37 162.99C153.16 167.07 154.1 170.99 155.1 174.63C151.86 171.92 147.72 171.8 142.31 174.23C142.192 174.285 142.087 174.365 142.004 174.466C141.921 174.566 141.862 174.684 141.83 174.81C141.799 174.93 141.8 175.057 141.833 175.176C141.866 175.296 141.931 175.404 142.02 175.49C142.25 175.72 146.18 179.49 151.02 180.04C152.869 180.273 154.746 179.949 156.41 179.11C158.394 185.769 160.812 192.289 163.65 198.63C163.707 198.75 163.794 198.852 163.903 198.928C164.012 199.003 164.138 199.049 164.27 199.06C164.448 199.078 164.628 199.046 164.79 198.97C164.996 198.871 165.156 198.696 165.237 198.482C165.319 198.269 165.317 198.032 165.23 197.82C161.494 189.421 158.467 180.724 156.18 171.82Z" fill="black"/>
</g>
<path d="M416.85 148.33H175.05C171.079 148.33 167.86 151.549 167.86 155.52V304.44C167.86 308.411 171.079 311.63 175.05 311.63H416.85C420.821 311.63 424.04 308.411 424.04 304.44V155.52C424.04 151.549 420.821 148.33 416.85 148.33Z" fill="#BA8507"/>
<path opacity="0.6" d="M416.85 148.33H175.05C171.079 148.33 167.86 151.549 167.86 155.52V304.44C167.86 308.411 171.079 311.63 175.05 311.63H416.85C420.821 311.63 424.04 308.411 424.04 304.44V155.52C424.04 151.549 420.821 148.33 416.85 148.33Z" fill="black"/>
<path d="M328.72 356.24H268.9C274.76 334.14 271.25 310.33 258.38 288.24H318.2C331.07 310.33 334.58 334.14 328.72 356.24Z" fill="#BA8507"/>
<path d="M325.6 356.24H265.77C271.63 334.14 268.13 310.33 255.25 288.24H315.08C328 310.33 331.46 334.14 325.6 356.24Z" fill="#BA8507"/>
<path d="M327.64 320H267.16C265.083 308.803 261.051 298.059 255.25 288.26H315.73C321.523 298.063 325.554 308.805 327.64 320Z" fill="#BA8507"/>
<g opacity="0.4">
<path d="M328.72 356.24H268.9C274.76 334.14 271.25 310.33 258.38 288.24H318.2C331.07 310.33 334.58 334.14 328.72 356.24Z" fill="black"/>
<path d="M325.6 356.24H265.77C271.63 334.14 268.13 310.33 255.25 288.24H315.08C328 310.33 331.46 334.14 325.6 356.24Z" fill="black"/>
<path d="M327.64 320H267.16C265.083 308.803 261.051 298.059 255.25 288.26H315.73C321.523 298.063 325.554 308.805 327.64 320Z" fill="black"/>
</g>
<path d="M325.6 356.24H265.77C271.63 334.14 268.13 310.33 255.25 288.24H315.08C328 310.33 331.46 334.14 325.6 356.24Z" fill="#BA8507"/>
<path opacity="0.2" d="M325.6 356.24H265.77C271.63 334.14 268.13 310.33 255.25 288.24H315.08C328 310.33 331.46 334.14 325.6 356.24Z" fill="black"/>
<path opacity="0.2" d="M327 320H267.1C265.04 308.815 261.047 298.074 255.3 288.26H315.2C320.947 298.074 324.94 308.815 327 320Z" fill="black"/>
<path d="M413.45 148.33H171.65C167.679 148.33 164.46 151.549 164.46 155.52V304.44C164.46 308.411 167.679 311.63 171.65 311.63H413.45C417.421 311.63 420.64 308.411 420.64 304.44V155.52C420.64 151.549 417.421 148.33 413.45 148.33Z" fill="#BA8507"/>
<path opacity="0.3" d="M413.45 148.33H171.65C167.679 148.33 164.46 151.549 164.46 155.52V304.44C164.46 308.411 167.679 311.63 171.65 311.63H413.45C417.421 311.63 420.64 308.411 420.64 304.44V155.52C420.64 151.549 417.421 148.33 413.45 148.33Z" fill="black"/>
<path d="M314.5 351.51H246.2C244.946 351.51 243.743 352.008 242.856 352.895C241.969 353.782 241.47 354.985 241.47 356.24H319.23C319.23 354.985 318.732 353.782 317.845 352.895C316.958 352.008 315.755 351.51 314.5 351.51Z" fill="#BA8507"/>
<path opacity="0.3" d="M314.5 351.51H246.2C244.946 351.51 243.743 352.008 242.856 352.895C241.969 353.782 241.47 354.985 241.47 356.24H319.23C319.23 354.985 318.732 353.782 317.845 352.895C316.958 352.008 315.755 351.51 314.5 351.51Z" fill="black"/>
<path d="M420.64 156.6H164.46V288.23H420.64V156.6Z" fill="#BA8507"/>
<path opacity="0.84" d="M420.55 156.6H164.37V288.23H420.55V156.6Z" fill="#FAFAFA"/>
<path opacity="0.23" d="M383.41 166.771H210.82C209.252 166.771 207.98 168.042 207.98 169.611V270.571C207.98 272.139 209.252 273.411 210.82 273.411H383.41C384.979 273.411 386.25 272.139 386.25 270.571V169.611C386.25 168.042 384.979 166.771 383.41 166.771Z" fill="#BA8507"/>
<path opacity="0.67" d="M385.5 174.11V270.57C385.5 271.324 385.201 272.046 384.668 272.579C384.136 273.111 383.413 273.41 382.66 273.41H210.07C209.318 273.408 208.597 273.108 208.065 272.576C207.533 272.044 207.233 271.323 207.23 270.57V174.11H385.5Z" fill="#FAFAFA"/>
<path opacity="0.41" d="M384.98 177.89H207.75V269.64H384.98V177.89Z" fill="white"/>
<path opacity="0.19" d="M348.79 241.23C344.133 241.23 339.579 239.849 335.707 237.261C331.834 234.673 328.815 230.995 327.033 226.692C325.25 222.389 324.784 217.654 325.693 213.086C326.601 208.517 328.844 204.321 332.138 201.028C335.431 197.734 339.628 195.491 344.196 194.582C348.764 193.674 353.499 194.14 357.802 195.923C362.106 197.705 365.784 200.723 368.371 204.596C370.959 208.469 372.34 213.022 372.34 217.68C372.332 223.923 369.849 229.909 365.434 234.324C361.019 238.738 355.034 241.222 348.79 241.23ZM348.79 194.38C344.182 194.38 339.677 195.746 335.845 198.307C332.014 200.867 329.027 204.506 327.264 208.763C325.5 213.021 325.039 217.706 325.938 222.226C326.837 226.745 329.056 230.897 332.315 234.155C335.573 237.414 339.725 239.633 344.245 240.532C348.764 241.431 353.449 240.97 357.707 239.206C361.964 237.443 365.603 234.456 368.163 230.625C370.724 226.793 372.09 222.288 372.09 217.68C372.085 211.502 369.628 205.579 365.26 201.21C360.892 196.842 354.968 194.385 348.79 194.38Z" fill="#BA8507"/>
<path opacity="0.19" d="M309.2 241.23C304.542 241.23 299.989 239.849 296.116 237.261C292.244 234.673 289.225 230.995 287.443 226.692C285.66 222.389 285.194 217.654 286.103 213.086C287.011 208.517 289.254 204.321 292.548 201.028C295.841 197.734 300.038 195.491 304.606 194.582C309.174 193.674 313.909 194.14 318.212 195.923C322.516 197.705 326.194 200.723 328.781 204.596C331.369 208.469 332.75 213.022 332.75 217.68C332.74 223.922 330.255 229.906 325.841 234.321C321.427 238.735 315.443 241.219 309.2 241.23ZM309.2 194.38C304.592 194.38 300.087 195.746 296.255 198.307C292.424 200.867 289.437 204.506 287.674 208.763C285.91 213.021 285.449 217.706 286.348 222.226C287.247 226.745 289.466 230.897 292.725 234.155C295.983 237.414 300.135 239.633 304.655 240.532C309.174 241.431 313.859 240.97 318.117 239.206C322.374 237.443 326.013 234.456 328.573 230.625C331.134 226.793 332.5 222.288 332.5 217.68C332.492 211.503 330.035 205.581 325.667 201.213C321.299 196.845 315.377 194.388 309.2 194.38Z" fill="#BA8507"/>
<path opacity="0.19" d="M372.22 254.39H233.22C233.203 254.39 233.187 254.386 233.172 254.38C233.156 254.373 233.143 254.363 233.131 254.351C233.12 254.339 233.112 254.324 233.106 254.309C233.101 254.293 233.099 254.276 233.1 254.26V250.39C233.099 250.373 233.101 250.356 233.106 250.341C233.112 250.325 233.12 250.311 233.131 250.298C233.143 250.286 233.156 250.276 233.172 250.27C233.187 250.263 233.203 250.26 233.22 250.26H372.22C372.237 250.26 372.253 250.263 372.268 250.27C372.284 250.276 372.297 250.286 372.309 250.298C372.32 250.311 372.329 250.325 372.334 250.341C372.339 250.356 372.341 250.373 372.34 250.39V254.26C372.341 254.276 372.339 254.293 372.334 254.309C372.329 254.324 372.32 254.339 372.309 254.351C372.297 254.363 372.284 254.373 372.268 254.38C372.253 254.386 372.237 254.39 372.22 254.39ZM233.31 254.14H372.09V250.51H233.31V254.14Z" fill="#BA8507"/>
<path opacity="0.19" d="M380 261.15H212.76C212.743 261.15 212.727 261.147 212.712 261.14C212.696 261.133 212.683 261.124 212.671 261.112C212.66 261.099 212.652 261.085 212.646 261.069C212.641 261.053 212.639 261.037 212.64 261.02V186.5C212.639 186.484 212.641 186.467 212.646 186.451C212.652 186.435 212.66 186.421 212.671 186.409C212.683 186.396 212.696 186.387 212.712 186.38C212.727 186.373 212.743 186.37 212.76 186.37H380C380.017 186.37 380.033 186.373 380.048 186.38C380.064 186.387 380.077 186.396 380.089 186.409C380.1 186.421 380.109 186.435 380.114 186.451C380.119 186.467 380.121 186.484 380.12 186.5V261C380.125 261.018 380.125 261.037 380.121 261.055C380.117 261.074 380.109 261.091 380.098 261.105C380.086 261.12 380.071 261.131 380.054 261.139C380.037 261.147 380.019 261.151 380 261.15ZM212.92 260.9H379.92V186.62H212.89L212.92 260.9Z" fill="#BA8507"/>
<path d="M377.77 170.46C377.768 170.759 377.855 171.052 378.02 171.302C378.184 171.551 378.42 171.746 378.695 171.862C378.971 171.978 379.275 172.009 379.568 171.952C379.862 171.895 380.132 171.752 380.344 171.541C380.556 171.33 380.701 171.061 380.76 170.768C380.819 170.475 380.79 170.171 380.676 169.894C380.562 169.618 380.369 169.382 380.12 169.215C379.871 169.049 379.579 168.96 379.28 168.96C379.082 168.959 378.886 168.997 378.703 169.071C378.52 169.146 378.353 169.256 378.213 169.396C378.073 169.535 377.961 169.701 377.885 169.884C377.809 170.066 377.77 170.262 377.77 170.46Z" fill="white"/>
<path d="M373.93 171.97C374.764 171.97 375.44 171.294 375.44 170.46C375.44 169.626 374.764 168.95 373.93 168.95C373.096 168.95 372.42 169.626 372.42 170.46C372.42 171.294 373.096 171.97 373.93 171.97Z" fill="white"/>
<path d="M368.58 171.97C369.414 171.97 370.09 171.294 370.09 170.46C370.09 169.626 369.414 168.95 368.58 168.95C367.746 168.95 367.07 169.626 367.07 170.46C367.07 171.294 367.746 171.97 368.58 171.97Z" fill="white"/>
<path d="M385.5 173.92H207.23V174.3H385.5V173.92Z" fill="#BA8507"/>
<path opacity="0.47" d="M232.93 156.6L209.4 288.23H232.69L256.22 156.6H232.93Z" fill="#FAFAFA"/>
<path opacity="0.47" d="M261.9 156.6L238.38 288.23H250.02L273.55 156.6H261.9Z" fill="#FAFAFA"/>
<path opacity="0.4" d="M392.06 156.6L368.53 288.23H374.36L397.88 156.6H392.06Z" fill="white"/>
<path opacity="0.4" d="M381.81 156.6L358.28 288.23H364.11L387.63 156.6H381.81Z" fill="white"/>
<path d="M330.77 351.51H318.54C317.286 351.51 316.082 352.008 315.195 352.895C314.308 353.782 313.81 354.985 313.81 356.24H335.49C335.491 355.619 335.37 355.004 335.134 354.43C334.897 353.857 334.55 353.335 334.111 352.896C333.673 352.456 333.152 352.108 332.579 351.87C332.005 351.632 331.391 351.51 330.77 351.51Z" fill="#BA8507"/>
<path opacity="0.4" d="M330.77 351.51H318.54C317.286 351.51 316.082 352.008 315.195 352.895C314.308 353.782 313.81 354.985 313.81 356.24H335.49C335.491 355.619 335.37 355.004 335.134 354.43C334.897 353.857 334.55 353.335 334.111 352.896C333.673 352.456 333.152 352.108 332.579 351.87C332.005 351.632 331.391 351.51 330.77 351.51Z" fill="black"/>
<path d="M297.45 300.23C297.45 301.199 297.163 302.147 296.624 302.952C296.086 303.758 295.321 304.386 294.425 304.757C293.53 305.128 292.545 305.225 291.594 305.036C290.644 304.847 289.771 304.38 289.085 303.695C288.4 303.01 287.933 302.137 287.744 301.186C287.555 300.236 287.652 299.25 288.023 298.355C288.394 297.46 289.022 296.694 289.828 296.156C290.634 295.617 291.581 295.33 292.55 295.33C293.85 295.33 295.096 295.846 296.015 296.765C296.934 297.684 297.45 298.931 297.45 300.23Z" fill="#BA8507"/>
<path opacity="0.5" d="M297.45 300.23C297.45 301.199 297.163 302.147 296.624 302.952C296.086 303.758 295.321 304.386 294.425 304.757C293.53 305.128 292.545 305.225 291.594 305.036C290.644 304.847 289.771 304.38 289.085 303.695C288.4 303.01 287.933 302.137 287.744 301.186C287.555 300.236 287.652 299.25 288.023 298.355C288.394 297.46 289.022 296.694 289.828 296.156C290.634 295.617 291.581 295.33 292.55 295.33C293.85 295.33 295.096 295.846 296.015 296.765C296.934 297.684 297.45 298.931 297.45 300.23Z" fill="black"/>
<path d="M250.68 339.34C249.99 315.4 250.05 169.41 251.44 157.42L253.33 154.81C253.33 154.81 252.46 157.13 252.25 198.16C252.04 239.19 251.76 333.25 251.99 339.34H250.68Z" fill="#BA8507"/>
<path d="M261.91 250.55C269.91 237.23 278.67 227.76 285.01 222.55C291.35 217.34 274.73 251.17 268.23 263.76C261.73 276.35 253.72 290.27 251.14 302.03C250.64 278.11 253.9 263.87 261.91 250.55Z" fill="#BA8507"/>
<path d="M251.3 159.1C252.94 143.96 250.72 129.97 258.96 112.24C267.2 94.5095 273.47 80.5895 281.42 74.1195C283.33 72.5595 276.8 103.38 269.21 120.74C263.86 132.99 262.14 141.74 256.46 150C255.13 151.92 251.3 159.1 251.3 159.1Z" fill="#BA8507"/>
<path d="M251.26 239.88C252.92 221.19 254.42 203.19 265.15 176.6C267.76 170.12 291.95 124.84 298.26 119.94C301.35 117.53 290.54 147.62 279.98 172.94C272.07 191.94 268.79 197.38 259.98 219.42C256.53 228.15 251.26 239.88 251.26 239.88Z" fill="#BA8507"/>
<path d="M237.18 147.649C228.18 135.459 219.48 127.219 213.09 122.909C206.7 118.599 224.09 148.569 232.45 161.649C240.81 174.729 248.38 186.079 251.84 197.419C250.18 173.549 246.18 159.849 237.18 147.649Z" fill="#BA8507"/>
<path d="M251.26 272.999C249.56 259.999 246.06 244.729 241.06 233.409C236.06 222.089 228.36 204.729 222.24 198.839C220.77 197.419 228.64 231.189 233.7 240.169C238.76 249.149 242.46 257.619 245.64 262.709C246.7 264.359 251.26 272.999 251.26 272.999Z" fill="#BA8507"/>
<path opacity="0.5" d="M250.68 339.34C249.99 315.4 250.05 169.41 251.44 157.42L253.33 154.81C253.33 154.81 252.46 157.13 252.25 198.16C252.04 239.19 251.76 333.25 251.99 339.34H250.68Z" fill="white"/>
<path opacity="0.5" d="M261.91 250.55C269.91 237.23 278.67 227.76 285.01 222.55C291.35 217.34 274.73 251.17 268.23 263.76C261.73 276.35 253.72 290.27 251.14 302.03C250.64 278.11 253.9 263.87 261.91 250.55Z" fill="white"/>
<path opacity="0.5" d="M251.3 159.1C252.94 143.96 250.72 129.97 258.96 112.24C267.2 94.5095 273.47 80.5895 281.42 74.1195C283.33 72.5595 276.8 103.38 269.21 120.74C263.86 132.99 262.14 141.74 256.46 150C255.13 151.92 251.3 159.1 251.3 159.1Z" fill="white"/>
<path opacity="0.5" d="M251.26 239.88C252.92 221.19 254.42 203.19 265.15 176.6C267.76 170.12 291.95 124.84 298.26 119.94C301.35 117.53 290.54 147.62 279.98 172.94C272.07 191.94 268.79 197.38 259.98 219.42C256.53 228.15 251.26 239.88 251.26 239.88Z" fill="white"/>
<path opacity="0.5" d="M237.18 147.649C228.18 135.459 219.48 127.219 213.09 122.909C206.7 118.599 224.09 148.569 232.45 161.649C240.81 174.729 248.38 186.079 251.84 197.419C250.18 173.549 246.18 159.849 237.18 147.649Z" fill="white"/>
<path opacity="0.5" d="M251.26 272.999C249.56 259.999 246.06 244.729 241.06 233.409C236.06 222.089 228.36 204.729 222.24 198.839C220.77 197.419 228.64 231.189 233.7 240.169C238.76 249.149 242.46 257.619 245.64 262.709C246.7 264.359 251.26 272.999 251.26 272.999Z" fill="white"/>
<path d="M270.3 356.24H232.4L229.54 334.46H273.16L270.3 356.24Z" fill="#263238"/>
<path d="M275.98 336.999H226.71L225.3 329.649H277.39L275.98 336.999Z" fill="#263238"/>
<path d="M228.95 171.57H116.2C112.34 171.57 109.21 174.7 109.21 178.56V349.25C109.21 353.111 112.34 356.24 116.2 356.24H228.95C232.811 356.24 235.94 353.111 235.94 349.25V178.56C235.94 174.7 232.811 171.57 228.95 171.57Z" fill="#BA8507"/>
<path opacity="0.6" d="M228.95 171.57H116.2C112.34 171.57 109.21 174.7 109.21 178.56V349.25C109.21 353.111 112.34 356.24 116.2 356.24H228.95C232.811 356.24 235.94 353.111 235.94 349.25V178.56C235.94 174.7 232.811 171.57 228.95 171.57Z" fill="black"/>
<path d="M225.6 171.57H112.85C108.99 171.57 105.86 174.7 105.86 178.56V349.25C105.86 353.111 108.99 356.24 112.85 356.24H225.6C229.461 356.24 232.59 353.111 232.59 349.25V178.56C232.59 174.7 229.461 171.57 225.6 171.57Z" fill="#BA8507"/>
<path opacity="0.3" d="M225.6 171.57H112.85C108.99 171.57 105.86 174.7 105.86 178.56V349.25C105.86 353.111 108.99 356.24 112.85 356.24H225.6C229.461 356.24 232.59 353.111 232.59 349.25V178.56C232.59 174.7 229.461 171.57 225.6 171.57Z" fill="black"/>
<path d="M232.59 179.59H105.86V339.89H232.59V179.59Z" fill="#FAFAFA"/>
<path opacity="0.1" d="M232.59 179.59H105.86V339.89H232.59V179.59Z" fill="#BA8507"/>
<path opacity="0.48" d="M150.79 179.99L121.79 340.29H143.94L172.94 179.99H150.79Z" fill="#FAFAFA"/>
<path opacity="0.48" d="M179.52 179.59L150.52 339.9H161.59L190.59 179.59H179.52Z" fill="#FAFAFA"/>
<path d="M169.22 352.73C171.849 352.73 173.98 350.599 173.98 347.97C173.98 345.341 171.849 343.21 169.22 343.21C166.591 343.21 164.46 345.341 164.46 347.97C164.46 350.599 166.591 352.73 169.22 352.73Z" fill="#BA8507"/>
<path opacity="0.5" d="M169.22 352.73C171.849 352.73 173.98 350.599 173.98 347.97C173.98 345.341 171.849 343.21 169.22 343.21C166.591 343.21 164.46 345.341 164.46 347.97C164.46 350.599 166.591 352.73 169.22 352.73Z" fill="black"/>
<path d="M170.32 175.26C170.32 175.478 170.256 175.69 170.135 175.871C170.014 176.052 169.842 176.193 169.641 176.276C169.44 176.36 169.219 176.381 169.006 176.339C168.792 176.297 168.596 176.192 168.442 176.038C168.288 175.884 168.184 175.688 168.141 175.475C168.099 175.261 168.121 175.04 168.204 174.839C168.287 174.638 168.428 174.466 168.609 174.346C168.79 174.225 169.003 174.16 169.22 174.16C169.512 174.16 169.792 174.276 169.998 174.482C170.204 174.689 170.32 174.968 170.32 175.26Z" fill="#BA8507"/>
<path opacity="0.5" d="M170.32 175.26C170.32 175.478 170.256 175.69 170.135 175.871C170.014 176.052 169.842 176.193 169.641 176.276C169.44 176.36 169.219 176.381 169.006 176.339C168.792 176.297 168.596 176.192 168.442 176.038C168.288 175.884 168.184 175.688 168.141 175.475C168.099 175.261 168.121 175.04 168.204 174.839C168.287 174.638 168.428 174.466 168.609 174.346C168.79 174.225 169.003 174.16 169.22 174.16C169.512 174.16 169.792 174.276 169.998 174.482C170.204 174.689 170.32 174.968 170.32 175.26Z" fill="black"/>
<path d="M327.51 143.999L335.14 142.569C335.262 142.549 335.378 142.502 335.48 142.432C335.582 142.361 335.667 142.269 335.729 142.162C335.791 142.055 335.828 141.936 335.839 141.813C335.85 141.69 335.833 141.565 335.79 141.449L329.79 123.679C329.696 123.423 329.516 123.207 329.281 123.069C329.046 122.93 328.77 122.877 328.5 122.919L320.88 124.339C320.757 124.359 320.639 124.407 320.537 124.478C320.434 124.549 320.348 124.642 320.286 124.75C320.224 124.858 320.187 124.979 320.177 125.103C320.167 125.228 320.185 125.353 320.23 125.469L326.23 143.239C326.32 143.496 326.498 143.713 326.732 143.852C326.966 143.991 327.241 144.043 327.51 143.999Z" fill="#BA8507"/>
<path opacity="0.6" d="M327.51 143.999L335.14 142.569C335.262 142.549 335.378 142.502 335.48 142.432C335.582 142.361 335.667 142.269 335.729 142.162C335.791 142.055 335.828 141.936 335.839 141.813C335.85 141.69 335.833 141.565 335.79 141.449L329.79 123.679C329.696 123.423 329.516 123.207 329.281 123.069C329.046 122.93 328.77 122.877 328.5 122.919L320.88 124.339C320.757 124.359 320.639 124.407 320.537 124.478C320.434 124.549 320.348 124.642 320.286 124.75C320.224 124.858 320.187 124.979 320.177 125.103C320.167 125.228 320.185 125.353 320.23 125.469L326.23 143.239C326.32 143.496 326.498 143.713 326.732 143.852C326.966 143.991 327.241 144.043 327.51 143.999Z" fill="black"/>
<path d="M328.45 143.86L336.07 142.44C336.193 142.42 336.31 142.373 336.413 142.302C336.516 142.231 336.601 142.138 336.664 142.029C336.726 141.921 336.763 141.8 336.773 141.676C336.783 141.551 336.765 141.426 336.72 141.31L330.72 123.54C330.626 123.283 330.446 123.068 330.211 122.929C329.976 122.79 329.7 122.738 329.43 122.78L321.81 124.21C321.687 124.228 321.57 124.274 321.467 124.344C321.364 124.414 321.279 124.506 321.216 124.614C321.154 124.721 321.116 124.841 321.107 124.965C321.097 125.089 321.115 125.214 321.16 125.33L327.16 143.1C327.254 143.356 327.434 143.572 327.669 143.711C327.904 143.849 328.18 143.902 328.45 143.86Z" fill="#BA8507"/>
<path opacity="0.3" d="M328.45 143.86L336.07 142.44C336.193 142.42 336.31 142.373 336.413 142.302C336.516 142.231 336.601 142.138 336.664 142.029C336.726 141.921 336.763 141.8 336.773 141.676C336.783 141.551 336.765 141.426 336.72 141.31L330.72 123.54C330.626 123.283 330.446 123.068 330.211 122.929C329.976 122.79 329.7 122.738 329.43 122.78L321.81 124.21C321.687 124.228 321.57 124.274 321.467 124.344C321.364 124.414 321.279 124.506 321.216 124.614C321.154 124.721 321.116 124.841 321.107 124.965C321.097 125.089 321.115 125.214 321.16 125.33L327.16 143.1C327.254 143.356 327.434 143.572 327.669 143.711C327.904 143.849 328.18 143.902 328.45 143.86Z" fill="black"/>
<path d="M326.75 141.89L336.31 140.1L330.93 124.16L321.36 125.95L326.75 141.89Z" fill="#FAFAFA"/>
<path opacity="0.14" d="M326.75 141.89L336.31 140.1L330.93 124.16L321.36 125.95L326.75 141.89Z" fill="#BA8507"/>
<path d="M321.36 132.84L322.11 131.1L329.31 139.19L323.08 139.67L321.36 132.84Z" fill="#E58A7B"/>
<path d="M198.35 70.0993C206.872 70.0993 213.78 63.191 213.78 54.6693C213.78 46.1475 206.872 39.2393 198.35 39.2393C189.828 39.2393 182.92 46.1475 182.92 54.6693C182.92 63.191 189.828 70.0993 198.35 70.0993Z" fill="#BA8507"/>
<path d="M198.35 72.9997C197.291 73.0005 196.233 72.9102 195.19 72.7297L195.36 71.7297C197.345 72.0686 199.374 72.0686 201.36 71.7297L201.53 72.7297C200.479 72.9092 199.416 72.9995 198.35 72.9997ZM189.22 70.5597C187.372 69.4969 185.724 68.1195 184.35 66.4897L185.12 65.8397C186.415 67.3857 187.972 68.6922 189.72 69.6997L189.22 70.5597ZM207.5 70.5597L207 69.6997C208.747 68.6922 210.304 67.3857 211.6 65.8397L212.36 66.4797C210.987 68.0931 209.342 69.4536 207.5 70.4997V70.5597ZM181.16 60.9997C180.429 58.9936 180.057 56.8747 180.06 54.7397H181.06C181.044 56.7531 181.383 58.7535 182.06 60.6497L181.16 60.9997ZM215.54 60.9997L214.6 60.6597C215.277 58.7635 215.615 56.7631 215.6 54.7497H216.28H216.6C216.605 56.8521 216.246 58.9396 215.54 60.9197V60.9997ZM182.08 48.8697L181.14 48.5297C181.866 46.5219 182.939 44.657 184.31 43.0197L185.07 43.6597C183.786 45.1853 182.774 46.9207 182.08 48.7897V48.8697ZM214.58 48.7697C213.89 46.881 212.875 45.1278 211.58 43.5897L212.35 42.9397C213.725 44.5675 214.808 46.4217 215.55 48.4197L214.58 48.7697ZM189.66 39.7697L189.16 38.9097C191.013 37.8263 193.045 37.0845 195.16 36.7197L195.33 37.7197C193.338 38.047 191.419 38.7205 189.66 39.7097V39.7697ZM206.94 39.7697C205.193 38.7748 203.283 38.0977 201.3 37.7697L201.47 36.7697C203.58 37.1295 205.611 37.8572 207.47 38.9197L206.94 39.7697Z" fill="#BA8507"/>
<path d="M318.39 132.689H315.39V133.689H318.39V132.689Z" fill="#BA8507"/>
<path d="M309.38 133.69H303.38V132.69H309.38V133.69ZM297.3 133C295.314 132.452 293.425 131.598 291.7 130.47L292.25 129.64C293.887 130.705 295.678 131.511 297.56 132.03L297.3 133ZM287.13 126.38C285.816 124.797 284.757 123.019 283.99 121.11L284.92 120.74C285.659 122.55 286.671 124.236 287.92 125.74L287.13 126.38ZM282.59 115.13C282.59 114.62 282.59 114.13 282.59 113.59C282.588 112.049 282.762 110.512 283.11 109.01L284.11 109.24C283.781 110.667 283.617 112.126 283.62 113.59C283.62 114.08 283.62 114.59 283.62 115.06L282.59 115.13ZM286.21 103.83L285.35 103.32C286.401 101.551 287.716 99.9525 289.25 98.5802L289.92 99.3302C288.463 100.622 287.212 102.13 286.21 103.8V103.83ZM294.81 96.1401L294.4 95.2301C296.274 94.3836 298.267 93.8337 300.31 93.6002L300.43 94.6002C298.491 94.8144 296.596 95.3236 294.81 96.1101V96.1401ZM319.05 94.4602H318.39V93.4602H319.05C320.79 93.459 322.523 93.2235 324.2 92.7601L324.47 93.7601C322.702 94.2279 320.879 94.4533 319.05 94.4301V94.4602ZM312.38 94.4602H306.38V93.4602H312.38V94.4602ZM330.06 91.1801L329.51 90.3502C331.147 89.2789 332.61 87.9637 333.85 86.4501L334.63 87.0802C333.324 88.6632 331.783 90.0359 330.06 91.1501V91.1801ZM337.75 81.8001L336.82 81.4301C337.54 79.6101 337.982 77.6919 338.13 75.7402L339.13 75.8202C338.971 77.8615 338.506 79.8672 337.75 81.7702V81.8001ZM337.67 69.9301C337.221 68.0253 336.483 66.2006 335.48 64.5201L336.34 64.0101C337.395 65.7772 338.171 67.6964 338.64 69.7001L337.67 69.9301ZM331.76 60.0301C330.299 58.7328 328.651 57.664 326.87 56.8601L327.27 55.9501C329.148 56.7888 330.885 57.912 332.42 59.2801L331.76 60.0301ZM321.24 55.3201C320.516 55.24 319.788 55.2 319.06 55.2001H315.29V54.2001H319.05C319.819 54.1922 320.587 54.2356 321.35 54.3301L321.24 55.3201ZM309.24 55.2001H303.24V54.2001H309.24V55.2001ZM297.24 55.2001H291.24V54.2001H297.24V55.2001ZM285.24 55.2001H279.24V54.2001H285.24V55.2001ZM273.24 55.2001H267.24V54.2001H273.24V55.2001ZM261.24 55.2001H255.24V54.2001H261.24V55.2001ZM249.24 55.2001H243.24V54.2001H249.24V55.2001ZM237.24 55.2001H231.24V54.2001H237.24V55.2001Z" fill="#BA8507"/>
<path d="M225.06 54.1699H222.06V55.1699H225.06V54.1699Z" fill="#BA8507"/>
<path d="M198.77 76.2197H197.93V78.7297H198.77V76.2197Z" fill="#BA8507"/>
<path d="M93.9999 242.28H93.1699V237.28H93.9999V242.28ZM93.9999 232.28H93.1699V227.28H93.9999V232.28ZM185.27 229.71C184.291 229.709 183.315 229.602 182.36 229.39L182.54 228.58C184.132 228.92 185.773 228.961 187.38 228.7L187.51 229.52C186.762 229.628 186.006 229.675 185.25 229.66L185.27 229.71ZM133.73 229.71L133.68 228.87C135.303 228.77 136.892 228.359 138.36 227.66L138.72 228.41C137.144 229.135 135.443 229.549 133.71 229.63L133.73 229.71ZM128.6 229C126.955 228.453 125.43 227.594 124.11 226.47L124.65 225.83C125.887 226.887 127.317 227.695 128.86 228.21L128.6 229ZM192.32 227.69L191.88 226.98C193.264 226.127 194.472 225.017 195.44 223.71L196.12 224.21C195.084 225.592 193.795 226.763 192.32 227.66V227.69ZM177.61 227.32C176.181 226.343 174.952 225.1 173.99 223.66L174.69 223.19C175.591 224.545 176.746 225.713 178.09 226.63L177.61 227.32ZM142.83 225.32L142.22 224.76C143.316 223.557 144.172 222.155 144.74 220.63L145.53 220.92C144.914 222.526 143.998 223.999 142.83 225.26V225.32ZM120.89 222.48C120.08 220.945 119.578 219.267 119.41 217.54L120.24 217.46C120.399 219.079 120.871 220.652 121.63 222.09L120.89 222.48ZM93.9999 222.18H93.1699V217.18H93.9999V222.18ZM198.36 219.53L197.55 219.32C197.813 218.281 197.947 217.213 197.95 216.14V214.43H198.79V216.14C198.781 217.284 198.63 218.423 198.34 219.53H198.36ZM172 218.87C171.816 217.972 171.722 217.057 171.72 216.14V213.78H172.56V216.14C172.561 217 172.648 217.858 172.82 218.7L172 218.87ZM146.36 215.79H145.53V210.79H146.36V215.79ZM120.17 212.42H119.33V207.42H120.17V212.42ZM93.9999 212.13H93.1699V207.13H93.9999V212.13ZM198.79 209.41H197.95V204.41H198.79V209.41ZM172.59 208.75H171.75V205.21C171.753 204.732 171.727 204.255 171.67 203.78L172.5 203.68C172.56 204.188 172.59 204.699 172.59 205.21V208.75ZM146.39 205.75H145.56V205.22C145.557 203.67 145.821 202.131 146.34 200.67L147.13 200.95C146.639 202.32 146.389 203.765 146.39 205.22V205.75ZM119.07 202.49C118.72 200.899 118.065 199.391 117.14 198.05L117.83 197.58C118.798 199.012 119.477 200.619 119.83 202.31L119.07 202.49ZM94.3599 202.21L93.5499 202.01C93.9603 200.325 94.6938 198.736 95.7099 197.33L96.3799 197.82C95.4282 199.138 94.7359 200.624 94.3399 202.2L94.3599 202.21ZM198.79 199.36H197.95V194.36H198.79V199.36ZM170.22 199.18C169.445 197.749 168.403 196.479 167.15 195.44L167.68 194.8C169.02 195.91 170.134 197.268 170.96 198.8L170.22 199.18ZM149.6 196.8L148.97 196.24C150.122 194.943 151.515 193.88 153.07 193.11L153.44 193.86C151.974 194.576 150.663 195.571 149.58 196.79L149.6 196.8ZM113.7 194.66C112.348 193.756 110.833 193.125 109.24 192.8L109.41 191.98C111.108 192.332 112.722 193.011 114.16 193.98L113.7 194.66ZM99.8999 194.51L99.4599 193.8C100.921 192.864 102.552 192.225 104.26 191.92L104.41 192.75C102.8 193.033 101.261 193.627 99.8799 194.5L99.8999 194.51ZM162.9 193.13C161.665 192.738 160.376 192.539 159.08 192.54C158.71 192.54 158.42 192.54 158.08 192.54L158.02 191.7C158.36 191.7 158.71 191.7 159.02 191.7C160.403 191.7 161.779 191.909 163.1 192.32L162.9 193.13ZM198.79 189.31H197.95V184.31H198.79V189.31ZM198.79 179.26H197.95V174.26H198.79V179.26ZM198.79 169.21H197.95V164.21H198.79V169.21ZM198.79 159.21H197.95V154.21H198.79V159.21ZM198.79 149.16H197.95V144.16H198.79V149.16ZM198.79 139.1H197.95V134.1H198.79V139.1ZM198.79 129.1H197.95V124.1H198.79V129.1ZM198.79 119.05H197.95V114.05H198.79V119.05ZM198.79 109H197.95V104H198.79V109ZM198.79 99.0002H197.95V94.0002H198.79V99.0002ZM198.79 88.9502H197.95V83.9502H198.79V88.9502Z" fill="#BA8507"/>
<path d="M93.9899 247.41H93.1499V249.92H93.9899V247.41Z" fill="#BA8507"/>
<path d="M196.46 62.1894C196.063 62.1858 195.683 62.028 195.4 61.7494L190.16 56.5094C189.881 56.2269 189.725 55.8461 189.725 55.4494C189.725 55.0527 189.881 54.6719 190.16 54.3894C190.299 54.2491 190.464 54.1377 190.646 54.0617C190.827 53.9857 191.023 53.9465 191.22 53.9465C191.417 53.9465 191.612 53.9857 191.794 54.0617C191.976 54.1377 192.141 54.2491 192.28 54.3894L196.46 58.5694L204.41 50.6194C204.694 50.3544 205.07 50.2102 205.459 50.217C205.848 50.2239 206.218 50.3813 206.493 50.6561C206.768 50.931 206.925 51.3017 206.932 51.6903C206.939 52.0789 206.795 52.455 206.53 52.7394L197.53 61.7394C197.391 61.8822 197.224 61.9956 197.041 62.0729C196.857 62.1502 196.659 62.1898 196.46 62.1894Z" fill="white"/>
<path d="M384.5 92.1094C383.5 97.1094 381.32 107.109 384.8 110.459C384.8 110.459 383.44 115.459 374.21 115.459C364.05 115.459 369.35 110.459 369.35 110.459C374.9 109.139 374.75 105.029 373.79 101.169L384.5 92.1094Z" fill="#E58A7B"/>
<path d="M364.28 112.17C364.28 111.42 365.42 110.65 367.08 110.05C367.97 109.72 368.84 108.47 370.19 108.24C371.19 108.07 372.48 108.93 373.76 108.84C374.83 108.76 375.95 107.72 377.19 107.71C378.43 107.7 379.43 108.71 380.65 108.78C381.41 108.78 382.17 107.86 382.81 107.92C383.45 107.98 384.14 109.07 384.75 109.18C385.56 109.32 386.47 108.51 387.02 108.69C387.9 108.97 388.02 110.16 388.41 110.48C389.53 111.39 390.41 112.25 389.41 112.41C386.94 112.8 386.84 111.41 384.34 111.41C381.84 111.41 381.84 112.41 379.34 112.36C376.84 112.31 376.85 111.36 374.34 111.36C371.83 111.36 371.88 112.05 369.34 112.31C367.66 112.591 365.941 112.544 364.28 112.17Z" fill="#BA8507"/>
<g opacity="0.6">
<path d="M364.28 112.17C364.28 111.42 365.42 110.65 367.08 110.05C367.97 109.72 368.84 108.47 370.19 108.24C371.19 108.07 372.48 108.93 373.76 108.84C374.83 108.76 375.95 107.72 377.19 107.71C378.43 107.7 379.43 108.71 380.65 108.78C381.41 108.78 382.17 107.86 382.81 107.92C383.45 107.98 384.14 109.07 384.75 109.18C385.56 109.32 386.47 108.51 387.02 108.69C387.9 108.97 388.02 110.16 388.41 110.48C389.53 111.39 390.41 112.25 389.41 112.41C386.94 112.8 386.84 111.41 384.34 111.41C381.84 111.41 381.84 112.41 379.34 112.36C376.84 112.31 376.85 111.36 374.34 111.36C371.83 111.36 371.88 112.05 369.34 112.31C367.66 112.591 365.941 112.544 364.28 112.17Z" fill="black"/>
</g>
<path d="M402.66 121.229C403.96 123.979 404.98 126.61 406.01 129.35C407.04 132.09 407.87 134.849 408.67 137.639C409.48 140.457 410.148 143.314 410.67 146.199C410.91 147.649 411.16 149.099 411.32 150.589C411.42 151.319 411.51 152.059 411.56 152.809L411.73 155.109C411.774 157.011 411.434 158.902 410.73 160.669C410.155 162.152 409.47 163.59 408.68 164.969C407.189 167.538 405.519 169.998 403.68 172.329C400.12 176.848 396.215 181.084 392 184.999L388.88 182.119C390.53 179.939 392.22 177.699 393.8 175.439C395.38 173.179 396.96 170.919 398.39 168.609C399.823 166.357 401.119 164.019 402.27 161.609C402.799 160.507 403.247 159.367 403.61 158.199C403.903 157.334 404.039 156.423 404.01 155.509L403.76 153.619C403.69 152.969 403.58 152.319 403.45 151.619C403.24 150.319 402.95 149.01 402.66 147.71C402.37 146.41 402.04 145.109 401.66 143.809C401.28 142.509 400.94 141.209 400.54 139.919C399.75 137.339 398.84 134.769 397.9 132.229C396.96 129.689 395.9 127.11 394.9 124.74L402.66 121.229Z" fill="#E58A7B"/>
<path d="M399.25 112.369C402.73 113.129 406.44 125.649 406.44 125.649L392.74 134.389C392.74 134.389 388.44 124.389 390.1 120.029C391.84 115.529 395.14 111.469 399.25 112.369Z" fill="#BA8507"/>
<path opacity="0.6" d="M399.25 112.369C402.73 113.129 406.44 125.649 406.44 125.649L392.74 134.389C392.74 134.389 388.44 124.389 390.1 120.029C391.84 115.529 395.14 111.469 399.25 112.369Z" fill="white"/>
<path opacity="0.28" d="M397.39 116.63L392.71 134.31V134.39L398.19 130.89L397.39 116.63Z" fill="#BA8507"/>
<path d="M355.19 112.61C355.19 112.61 351.19 114.02 359.19 163.16H393.19C392.62 149.32 392.6 140.78 399.19 112.37C394.425 111.386 389.596 110.748 384.74 110.46C379.596 110.099 374.434 110.099 369.29 110.46C362.72 111.07 355.19 112.61 355.19 112.61Z" fill="#BA8507"/>
<path opacity="0.6" d="M355.19 112.61C355.19 112.61 351.19 114.02 359.19 163.16H393.19C392.62 149.32 392.6 140.78 399.19 112.37C394.425 111.386 389.596 110.748 384.74 110.46C379.596 110.099 374.434 110.099 369.29 110.46C362.72 111.07 355.19 112.61 355.19 112.61Z" fill="white"/>
<path d="M390.5 181L382.4 178.56L385.78 186.38C385.78 186.38 391.13 186.9 393.06 184L390.5 181Z" fill="#E58A7B"/>
<path d="M375.84 181.14L379.02 187.53L385.78 186.4L382.4 178.58L375.84 181.14Z" fill="#E58A7B"/>
<path d="M411.93 351.73H403.56L400.86 332.33H409.24L411.93 351.73Z" fill="#E58A7B"/>
<path d="M373.87 351.73H365.5L364.94 332.33H373.31L373.87 351.73Z" fill="#E58A7B"/>
<path d="M364.94 332.34L365.23 342.33H373.61L373.32 332.34H364.94Z" fill="#CF6F64"/>
<path d="M409.24 332.34H400.86L402.25 342.33H410.63L409.24 332.34Z" fill="#CF6F64"/>
<path d="M368.18 163.16C368.18 163.16 373.04 220.66 378.09 253.06C382.16 279.23 400.23 340.4 400.23 340.4H411.65C411.65 340.4 402.24 281.32 400.17 255.4C394.94 189.9 404.11 178.31 393.22 163.12L368.18 163.16Z" fill="#BA8507"/>
<path opacity="0.6" d="M368.18 163.16C368.18 163.16 373.04 220.66 378.09 253.06C382.16 279.23 400.23 340.4 400.23 340.4H411.65C411.65 340.4 402.24 281.32 400.17 255.4C394.94 189.9 404.11 178.31 393.22 163.12L368.18 163.16Z" fill="black"/>
<path opacity="0.4" d="M378.56 185.779C378.56 185.779 373.88 200.359 373.95 221.389C374.76 228.499 375.62 235.559 376.5 242.099C379.18 235.999 384.11 218.219 378.56 185.779Z" fill="black"/>
<path d="M359.2 163.16C359.2 163.16 352.59 227.69 353.14 253.23C353.71 279.8 363.45 340.4 363.45 340.4H374.77C374.77 340.4 372.98 281.4 373.98 255.26C375.07 226.81 384.11 163.16 384.11 163.16H359.2Z" fill="#BA8507"/>
<path opacity="0.6" d="M359.2 163.16C359.2 163.16 352.59 227.69 353.14 253.23C353.71 279.8 363.45 340.4 363.45 340.4H374.77C374.77 340.4 372.98 281.4 373.98 255.26C375.07 226.81 384.11 163.16 384.11 163.16H359.2Z" fill="black"/>
<path d="M400.17 352.22C399.603 352.267 399.037 352.115 398.57 351.79C398.431 351.655 398.328 351.487 398.27 351.302C398.212 351.116 398.202 350.92 398.24 350.73C398.252 350.609 398.295 350.494 398.365 350.396C398.435 350.298 398.53 350.22 398.64 350.17C399.64 349.74 402.16 351.37 402.44 351.56C402.473 351.581 402.499 351.611 402.515 351.646C402.531 351.682 402.536 351.721 402.53 351.76C402.525 351.799 402.507 351.835 402.48 351.863C402.454 351.892 402.418 351.912 402.38 351.92C401.657 352.1 400.915 352.201 400.17 352.22ZM399.05 350.49C398.964 350.485 398.878 350.502 398.8 350.54C398.74 350.54 398.66 350.62 398.64 350.79C398.608 350.914 398.61 351.044 398.645 351.167C398.68 351.29 398.747 351.401 398.84 351.49C399.26 351.88 400.36 351.93 401.84 351.64C401.001 351.065 400.05 350.674 399.05 350.49Z" fill="#BA8507"/>
<path d="M402.33 351.93C402.3 351.938 402.269 351.938 402.24 351.93C401.44 351.48 399.92 349.67 400.1 348.73C400.132 348.574 400.215 348.434 400.337 348.333C400.459 348.231 400.611 348.173 400.77 348.17C400.921 348.148 401.076 348.16 401.221 348.207C401.367 348.254 401.5 348.334 401.61 348.44C402.52 349.24 402.53 351.66 402.53 351.76C402.53 351.795 402.521 351.829 402.504 351.859C402.486 351.889 402.46 351.913 402.43 351.93C402.397 351.94 402.362 351.94 402.33 351.93ZM400.91 348.53H400.82C400.57 348.53 400.51 348.67 400.49 348.76C400.38 349.34 401.33 350.7 402.12 351.33C402.144 350.394 401.874 349.475 401.35 348.7C401.23 348.589 401.073 348.528 400.91 348.53Z" fill="#BA8507"/>
<path d="M362.06 352.22C361.355 352.276 360.652 352.096 360.06 351.71C359.922 351.586 359.818 351.429 359.757 351.254C359.695 351.08 359.679 350.892 359.71 350.71C359.714 350.6 359.747 350.494 359.805 350.401C359.862 350.308 359.944 350.232 360.04 350.18C361.04 349.62 364.41 351.33 364.78 351.52C364.818 351.538 364.85 351.569 364.869 351.606C364.889 351.644 364.896 351.687 364.89 351.73C364.884 351.77 364.865 351.807 364.836 351.836C364.808 351.865 364.77 351.884 364.73 351.89C363.852 352.083 362.958 352.193 362.06 352.22ZM360.57 350.49C360.443 350.483 360.316 350.507 360.2 350.56C360.161 350.582 360.129 350.614 360.106 350.652C360.083 350.691 360.071 350.735 360.07 350.78C360.054 350.895 360.067 351.013 360.107 351.123C360.147 351.233 360.213 351.331 360.3 351.41C360.81 351.87 362.19 351.95 364.04 351.64C362.957 351.061 361.784 350.672 360.57 350.49Z" fill="#BA8507"/>
<path d="M364.66 351.929H364.58C363.58 351.479 361.58 349.669 361.76 348.719C361.76 348.499 361.96 348.219 362.51 348.159C362.707 348.14 362.907 348.161 363.096 348.221C363.285 348.281 363.46 348.379 363.61 348.509C364.66 349.379 364.85 351.639 364.86 351.729C364.862 351.764 364.856 351.798 364.842 351.829C364.828 351.861 364.807 351.888 364.78 351.909C364.743 351.929 364.701 351.936 364.66 351.929ZM362.66 348.529H362.54C362.18 348.529 362.15 348.709 362.14 348.759C362.05 349.329 363.39 350.759 364.41 351.359C364.326 350.41 363.953 349.509 363.34 348.779C363.153 348.62 362.916 348.532 362.67 348.529H362.66Z" fill="#BA8507"/>
<path d="M364.37 83.2998C364.306 83.3066 364.24 83.2984 364.18 83.2759C364.119 83.2533 364.064 83.217 364.02 83.1698C363.699 82.7867 363.291 82.4859 362.83 82.2928C362.369 82.0997 361.868 82.0198 361.37 82.0598C361.265 82.0741 361.159 82.0463 361.075 81.9826C360.991 81.9189 360.935 81.8245 360.92 81.7198C360.908 81.617 360.935 81.5135 360.997 81.43C361.058 81.3466 361.148 81.2893 361.25 81.2698C361.878 81.2172 362.51 81.3138 363.094 81.5519C363.678 81.79 364.198 82.1628 364.61 82.6398C364.681 82.7158 364.72 82.8159 364.72 82.9198C364.72 83.0238 364.681 83.1239 364.61 83.1998C364.542 83.256 364.458 83.2908 364.37 83.2998Z" fill="#263238"/>
<path d="M362.63 88.2695C362.254 89.8802 361.659 91.4315 360.86 92.8795C361.236 93.0751 361.65 93.1862 362.073 93.2052C362.496 93.2242 362.918 93.1506 363.31 92.9895L362.63 88.2695Z" fill="#DF5753"/>
<path d="M363.07 87.0002C363.16 87.6702 362.89 88.2602 362.45 88.3202C362.01 88.3802 361.58 87.8902 361.45 87.2302C361.32 86.5702 361.63 85.9602 362.07 85.9002C362.51 85.8402 363 86.3702 363.07 87.0002Z" fill="#263238"/>
<path d="M362.3 85.9995L360.63 85.7695C360.63 85.7695 361.63 86.8495 362.3 85.9995Z" fill="#263238"/>
<path d="M403 350.76H412.41C412.571 350.756 412.728 350.813 412.85 350.918C412.972 351.023 413.05 351.17 413.07 351.33L414.15 358.78C414.17 358.969 414.149 359.159 414.09 359.34C414.031 359.52 413.935 359.686 413.808 359.826C413.68 359.967 413.525 360.079 413.351 360.156C413.177 360.232 412.99 360.271 412.8 360.27C409.52 360.21 407.94 360.02 403.8 360.02C401.26 360.02 397.54 360.28 394.02 360.28C390.5 360.28 390.32 356.8 391.78 356.49C398.35 355.08 399.38 353.13 401.6 351.27C401.992 350.94 402.488 350.759 403 350.76Z" fill="#263238"/>
<path d="M365.21 350.76H374.62C374.782 350.758 374.938 350.815 375.062 350.919C375.185 351.024 375.266 351.17 375.29 351.33L376.36 358.78C376.379 358.968 376.359 359.157 376.301 359.337C376.243 359.517 376.147 359.682 376.021 359.823C375.895 359.963 375.74 360.075 375.568 360.152C375.395 360.229 375.209 360.269 375.02 360.27C371.74 360.21 370.16 360.02 366.02 360.02C363.47 360.02 358.21 360.28 354.69 360.28C351.17 360.28 350.99 356.8 352.45 356.49C359.01 355.08 361.6 353.13 363.81 351.27C364.203 350.943 364.698 350.763 365.21 350.76Z" fill="#263238"/>
<path opacity="0.28" d="M354.21 120.55V120.75C354.31 126.34 355.08 135.75 357.4 151.57L362.14 133L354.21 120.55Z" fill="#BA8507"/>
<path d="M360.94 123.42C360 128.17 358.94 132.82 357.68 137.49C356.42 142.16 355.14 146.8 353.48 151.49L352.83 153.24L352.12 155C351.96 155.417 351.77 155.821 351.55 156.21C351.275 156.728 350.939 157.211 350.55 157.65C349.643 158.648 348.454 159.345 347.14 159.65C346.041 159.9 344.899 159.9 343.8 159.65C342.962 159.477 342.147 159.209 341.37 158.85C340.081 158.246 338.861 157.505 337.73 156.64C335.709 155.084 333.829 153.354 332.11 151.47C331.25 150.57 330.45 149.63 329.67 148.68C328.89 147.73 328.14 146.78 327.4 145.73L330.57 142.92C333.932 145.956 337.564 148.681 341.42 151.06C342.252 151.544 343.13 151.946 344.04 152.26C344.81 152.55 345.5 152.47 345.23 152.42C345.067 152.442 344.913 152.504 344.78 152.6L344.92 152.17L345.45 150.59L345.95 148.96C347.25 144.57 348.36 139.96 349.46 135.44L352.59 121.68L360.94 123.42Z" fill="#E58A7B"/>
<path d="M327.66 146.149L323.08 139.669L329.31 139.189C329.31 139.189 332.83 143.249 331.59 146.509L327.66 146.149Z" fill="#E58A7B"/>
<path d="M327.28 138L328.6 137.19L329.21 134.12L330.22 135.38L330.97 142.59L327.28 138Z" fill="#E58A7B"/>
<path d="M385.22 81.5201C385.9 89.8001 386.36 93.2901 382.82 98.1101C377.49 105.34 367.16 104.36 364.03 96.4401C361.2 89.3101 360.57 76.9601 368.15 72.5401C369.814 71.5561 371.702 71.0144 373.635 70.9664C375.568 70.9184 377.48 71.3657 379.191 72.2657C380.902 73.1658 382.354 74.4887 383.41 76.1086C384.465 77.7284 385.088 79.5913 385.22 81.5201Z" fill="#E58A7B"/>
<path d="M366.71 71.6097C365.016 72.3217 363.629 73.6094 362.792 75.2453C361.956 76.8811 361.725 78.7599 362.14 80.5497C362.14 80.5497 368.65 77.7397 368.91 88.1697C369.1 95.6997 363.91 105.86 363.91 105.86C363.91 105.86 375.98 108.36 393.35 103.04C400.74 100.78 397.41 56.4197 366.71 71.6097Z" fill="#263238"/>
<path d="M366.09 76.2197C364.91 79.0597 365.22 84.6797 369.87 84.0797C374.52 83.4797 373.16 78.7897 373.16 78.7897L366.09 76.2197Z" fill="#263238"/>
<path d="M371.27 87.4402C371.318 89.0479 370.733 90.6102 369.64 91.7902C368.18 93.3302 366.35 92.2902 365.85 90.3302C365.39 88.5802 365.6 85.6502 367.51 84.8302C367.931 84.6584 368.388 84.5946 368.84 84.6443C369.292 84.6941 369.724 84.856 370.098 85.1153C370.471 85.3745 370.774 85.723 370.979 86.129C371.184 86.535 371.284 86.9857 371.27 87.4402Z" fill="#E58A7B"/>
<path d="M412.5 340.77H399.45L398.06 336.22L412.95 336.57L412.5 340.77Z" fill="#BA8507"/>
<path d="M389.1 165H390C390.19 165 390.33 164.91 390.31 164.79L389.88 160.79C389.88 160.68 389.71 160.58 389.52 160.58H388.6C388.42 160.58 388.28 160.68 388.29 160.79L388.72 164.79C388.76 164.93 388.92 165 389.1 165Z" fill="#BA8507"/>
<path d="M366.74 165H367.66C367.84 165 367.98 164.91 367.97 164.79L367.54 160.79C367.54 160.68 367.36 160.58 367.18 160.58H366.26C366.07 160.58 365.93 160.68 365.95 160.79L366.38 164.79C366.39 164.93 366.55 165 366.74 165Z" fill="#BA8507"/>
<path d="M375.64 340.77H362.58L361.64 336.88L376.13 336.22L375.64 340.77Z" fill="#BA8507"/>
<path d="M393.73 161.17L395.26 164.17C395.38 164.41 395.1 164.65 394.71 164.65H359C358.69 164.65 358.44 164.5 358.42 164.31L358.11 161.31C358.11 161.1 358.36 160.92 358.69 160.92H393.14C393.252 160.905 393.365 160.92 393.469 160.964C393.573 161.008 393.663 161.079 393.73 161.17Z" fill="#BA8507"/>
<path opacity="0.1" d="M393.73 161.17L395.26 164.17C395.38 164.41 395.1 164.65 394.71 164.65H359C358.69 164.65 358.44 164.5 358.42 164.31L358.11 161.31C358.11 161.1 358.36 160.92 358.69 160.92H393.14C393.252 160.905 393.365 160.92 393.469 160.964C393.573 161.008 393.663 161.079 393.73 161.17Z" fill="black"/>
<path opacity="0.6" d="M389.1 165H390C390.19 165 390.33 164.91 390.31 164.79L389.88 160.79C389.88 160.68 389.71 160.58 389.52 160.58H388.6C388.42 160.58 388.28 160.68 388.29 160.79L388.72 164.79C388.76 164.93 388.92 165 389.1 165Z" fill="black"/>
<path opacity="0.6" d="M366.74 165H367.66C367.84 165 367.98 164.91 367.97 164.79L367.54 160.79C367.54 160.68 367.36 160.58 367.18 160.58H366.26C366.07 160.58 365.93 160.68 365.95 160.79L366.38 164.79C366.39 164.93 366.55 165 366.74 165Z" fill="black"/>
<path d="M355.19 112.61C351.74 113.49 349.33 127.7 349.33 127.7L362.65 136.75C362.65 136.75 368 119.83 365.31 116C362.54 112.08 360.23 111.33 355.19 112.61Z" fill="#BA8507"/>
<path opacity="0.6" d="M355.19 112.61C351.74 113.49 349.33 127.7 349.33 127.7L362.65 136.75C362.65 136.75 368 119.83 365.31 116C362.54 112.08 360.23 111.33 355.19 112.61Z" fill="white"/>
<path d="M166.26 295.83C166.265 295.796 166.265 295.763 166.26 295.73C166.54 294.12 166.78 292.5 166.98 290.86C169.81 294.01 172.27 294.81 174.03 294.81C174.217 294.82 174.404 294.82 174.59 294.81C178.04 294.47 180.95 291.09 182.39 285.81C182.419 285.705 182.424 285.596 182.407 285.489C182.39 285.382 182.35 285.28 182.29 285.19C182.166 285 181.978 284.861 181.76 284.8C179.316 284.131 176.754 284.013 174.259 284.454C171.763 284.895 169.397 285.884 167.33 287.35C167.45 285.81 167.52 284.27 167.54 282.72C168.098 282.817 168.664 282.868 169.23 282.87C174.93 282.87 178.46 277.8 178.63 277.55C178.694 277.453 178.733 277.342 178.743 277.227C178.754 277.112 178.735 276.996 178.69 276.89C178.644 276.773 178.574 276.667 178.484 276.58C178.395 276.492 178.288 276.424 178.17 276.38C174.61 275.04 171.72 274.92 169.59 276.04C168.235 276.777 167.193 277.982 166.66 279.43C165.154 276.148 162.872 273.282 160.012 271.078C157.151 268.874 153.798 267.399 150.24 266.78C150.138 266.755 150.032 266.756 149.931 266.781C149.829 266.805 149.735 266.854 149.656 266.922C149.577 266.991 149.515 267.077 149.476 267.174C149.437 267.271 149.421 267.375 149.43 267.48C149.79 272.65 150.75 278.96 155.01 281.98C156.715 283.147 158.745 283.746 160.81 283.69C162.576 283.651 164.329 283.372 166.02 282.86C165.931 286.544 165.597 290.219 165.02 293.86C162.65 291.17 156.62 285.19 148.39 283.13C148.299 283.101 148.202 283.093 148.107 283.106C148.012 283.118 147.921 283.151 147.84 283.203C147.759 283.254 147.69 283.322 147.639 283.403C147.587 283.484 147.553 283.575 147.54 283.67C146.93 288.12 147.99 291.73 150.59 294.11C152.75 296.11 155.85 297.11 159.59 297.11C161.25 297.094 162.904 296.92 164.53 296.59C163.97 299.64 163.28 302.59 162.53 305.47C159.94 303.41 152.45 298.2 145.31 300.37C145.216 300.401 145.13 300.453 145.059 300.522C144.988 300.591 144.933 300.676 144.9 300.77C144.866 300.87 144.854 300.976 144.864 301.081C144.874 301.186 144.907 301.288 144.96 301.38C147.6 306.3 150.24 309.03 153.25 309.98C154.034 310.223 154.85 310.348 155.67 310.35C157.793 310.261 159.859 309.631 161.67 308.52C160.54 312.3 159.3 315.82 158.08 318.96C156.04 317.055 153.556 315.691 150.854 314.992C148.152 314.293 145.318 314.282 142.61 314.96C142.525 314.978 142.444 315.014 142.372 315.065C142.301 315.116 142.24 315.18 142.195 315.255C142.149 315.33 142.119 315.413 142.106 315.5C142.093 315.586 142.098 315.675 142.12 315.76C142.539 317.381 143.33 318.882 144.431 320.144C145.531 321.406 146.911 322.394 148.46 323.03C149.592 323.498 150.805 323.739 152.03 323.74C153.651 323.727 155.241 323.3 156.65 322.5C155.055 326.395 153.256 330.204 151.26 333.91C151.175 334.094 151.162 334.304 151.223 334.498C151.284 334.692 151.415 334.857 151.59 334.96C151.721 335.045 151.874 335.09 152.03 335.09C152.147 335.093 152.262 335.065 152.364 335.009C152.466 334.953 152.551 334.87 152.61 334.77C155.03 330.232 157.184 325.558 159.06 320.77C159.099 320.693 159.129 320.613 159.15 320.53C159.523 319.59 159.893 318.62 160.26 317.62C162.67 320.4 165.6 321.94 168.54 321.94C168.86 321.94 169.17 321.94 169.49 321.94C171.12 321.777 172.659 321.112 173.895 320.038C175.131 318.963 176.003 317.531 176.39 315.94C176.418 315.76 176.389 315.577 176.306 315.415C176.224 315.253 176.092 315.122 175.93 315.04C173.725 313.804 171.259 313.108 168.734 313.009C166.208 312.91 163.695 313.41 161.4 314.47C162.19 312.18 162.96 309.75 163.67 307.23C163.733 307.127 163.768 307.01 163.77 306.89C163.96 306.18 164.16 305.47 164.34 304.74C167.23 307.88 169.9 309.42 172.47 309.42C175.59 309.42 178.47 307.11 181.24 302.42C181.315 302.245 181.327 302.05 181.274 301.868C181.221 301.685 181.107 301.527 180.95 301.42C175.14 297.42 168.19 300.15 165.09 301.75C165.53 299.876 165.917 297.97 166.25 296.03L166.26 295.83Z" fill="#BA8507"/>
<path opacity="0.3" d="M166.26 295.83C166.265 295.796 166.265 295.763 166.26 295.73C166.54 294.12 166.78 292.5 166.98 290.86C169.81 294.01 172.27 294.81 174.03 294.81C174.217 294.82 174.404 294.82 174.59 294.81C178.04 294.47 180.95 291.09 182.39 285.81C182.419 285.705 182.424 285.596 182.407 285.489C182.39 285.382 182.35 285.28 182.29 285.19C182.166 285 181.978 284.861 181.76 284.8C179.316 284.131 176.754 284.013 174.259 284.454C171.763 284.895 169.397 285.884 167.33 287.35C167.45 285.81 167.52 284.27 167.54 282.72C168.098 282.817 168.664 282.868 169.23 282.87C174.93 282.87 178.46 277.8 178.63 277.55C178.694 277.453 178.733 277.342 178.743 277.227C178.754 277.112 178.735 276.996 178.69 276.89C178.644 276.773 178.574 276.667 178.484 276.58C178.395 276.492 178.288 276.424 178.17 276.38C174.61 275.04 171.72 274.92 169.59 276.04C168.235 276.777 167.193 277.982 166.66 279.43C165.154 276.148 162.872 273.282 160.012 271.078C157.151 268.874 153.798 267.399 150.24 266.78C150.138 266.755 150.032 266.756 149.931 266.781C149.829 266.805 149.735 266.854 149.656 266.922C149.577 266.991 149.515 267.077 149.476 267.174C149.437 267.271 149.421 267.375 149.43 267.48C149.79 272.65 150.75 278.96 155.01 281.98C156.715 283.147 158.745 283.746 160.81 283.69C162.576 283.651 164.329 283.372 166.02 282.86C165.931 286.544 165.597 290.219 165.02 293.86C162.65 291.17 156.62 285.19 148.39 283.13C148.299 283.101 148.202 283.093 148.107 283.106C148.012 283.118 147.921 283.151 147.84 283.203C147.759 283.254 147.69 283.322 147.639 283.403C147.587 283.484 147.553 283.575 147.54 283.67C146.93 288.12 147.99 291.73 150.59 294.11C152.75 296.11 155.85 297.11 159.59 297.11C161.25 297.094 162.904 296.92 164.53 296.59C163.97 299.64 163.28 302.59 162.53 305.47C159.94 303.41 152.45 298.2 145.31 300.37C145.216 300.401 145.13 300.453 145.059 300.522C144.988 300.591 144.933 300.676 144.9 300.77C144.866 300.87 144.854 300.976 144.864 301.081C144.874 301.186 144.907 301.288 144.96 301.38C147.6 306.3 150.24 309.03 153.25 309.98C154.034 310.223 154.85 310.348 155.67 310.35C157.793 310.261 159.859 309.631 161.67 308.52C160.54 312.3 159.3 315.82 158.08 318.96C156.04 317.055 153.556 315.691 150.854 314.992C148.152 314.293 145.318 314.282 142.61 314.96C142.525 314.978 142.444 315.014 142.372 315.065C142.301 315.116 142.24 315.18 142.195 315.255C142.149 315.33 142.119 315.413 142.106 315.5C142.093 315.586 142.098 315.675 142.12 315.76C142.539 317.381 143.33 318.882 144.431 320.144C145.531 321.406 146.911 322.394 148.46 323.03C149.592 323.498 150.805 323.739 152.03 323.74C153.651 323.727 155.241 323.3 156.65 322.5C155.055 326.395 153.256 330.204 151.26 333.91C151.175 334.094 151.162 334.304 151.223 334.498C151.284 334.692 151.415 334.857 151.59 334.96C151.721 335.045 151.874 335.09 152.03 335.09C152.147 335.093 152.262 335.065 152.364 335.009C152.466 334.953 152.551 334.87 152.61 334.77C155.03 330.232 157.184 325.558 159.06 320.77C159.099 320.693 159.129 320.613 159.15 320.53C159.523 319.59 159.893 318.62 160.26 317.62C162.67 320.4 165.6 321.94 168.54 321.94C168.86 321.94 169.17 321.94 169.49 321.94C171.12 321.777 172.659 321.112 173.895 320.038C175.131 318.963 176.003 317.531 176.39 315.94C176.418 315.76 176.389 315.577 176.306 315.415C176.224 315.253 176.092 315.122 175.93 315.04C173.725 313.804 171.259 313.108 168.734 313.009C166.208 312.91 163.695 313.41 161.4 314.47C162.19 312.18 162.96 309.75 163.67 307.23C163.733 307.127 163.768 307.01 163.77 306.89C163.96 306.18 164.16 305.47 164.34 304.74C167.23 307.88 169.9 309.42 172.47 309.42C175.59 309.42 178.47 307.11 181.24 302.42C181.315 302.245 181.327 302.05 181.274 301.868C181.221 301.685 181.107 301.527 180.95 301.42C175.14 297.42 168.19 300.15 165.09 301.75C165.53 299.876 165.917 297.97 166.25 296.03L166.26 295.83Z" fill="black"/>
<path d="M130 316.1C131.078 316.438 132.2 316.617 133.33 316.63C134.765 316.623 136.181 316.31 137.485 315.712C138.789 315.114 139.95 314.244 140.891 313.161C141.832 312.078 142.531 310.807 142.941 309.432C143.352 308.058 143.464 306.611 143.27 305.19C143.236 305.034 143.146 304.897 143.017 304.805C142.887 304.712 142.728 304.671 142.57 304.69C139.806 304.996 137.144 305.912 134.778 307.374C132.412 308.835 130.401 310.805 128.89 313.14C127.63 309.68 126.45 306 125.46 302.19C127.076 303.145 128.904 303.685 130.78 303.76C131.551 303.762 132.318 303.641 133.05 303.4C136.94 302.11 139.61 297.47 141.92 292.64C141.962 292.552 141.983 292.457 141.983 292.36C141.983 292.263 141.962 292.167 141.92 292.08C141.886 291.993 141.832 291.915 141.763 291.852C141.693 291.79 141.61 291.745 141.52 291.72C133.91 289.55 126.99 296.99 124.81 299.65C124.047 296.424 123.459 293.159 123.05 289.87C124.662 290.178 126.299 290.339 127.94 290.35C131.94 290.35 135.1 289.29 137.24 287.2C139.78 284.73 140.65 281.03 139.77 276.51C139.753 276.423 139.718 276.34 139.667 276.267C139.615 276.194 139.549 276.133 139.473 276.088C139.396 276.043 139.311 276.014 139.223 276.004C139.134 275.994 139.045 276.003 138.96 276.03C130.84 278.19 125.11 284.23 122.77 287.09C122.77 286.5 122.67 285.91 122.63 285.32C122.618 285.172 122.558 285.031 122.46 284.92C122.257 283.812 121.809 282.763 121.148 281.851C120.487 280.939 119.63 280.187 118.64 279.65C116.42 278.55 113.49 278.71 109.95 280.12C109.845 280.161 109.751 280.224 109.673 280.305C109.595 280.386 109.536 280.483 109.5 280.59C109.464 280.693 109.454 280.803 109.469 280.911C109.485 281.019 109.526 281.121 109.59 281.21C109.77 281.45 113.59 286.47 119.31 286.47C119.928 286.468 120.544 286.408 121.15 286.29C121.27 287.917 121.44 289.546 121.66 291.18C119.505 289.715 117.056 288.738 114.484 288.318C111.912 287.899 109.279 288.046 106.77 288.75C106.671 288.774 106.578 288.819 106.498 288.881C106.417 288.943 106.349 289.021 106.3 289.11C106.25 289.195 106.218 289.29 106.206 289.388C106.194 289.486 106.202 289.585 106.23 289.68C108 295.06 111.15 298.45 114.67 298.74C114.83 298.75 114.99 298.75 115.15 298.74C116.95 298.74 119.44 297.92 122.15 294.6C122.813 298.341 123.681 302.044 124.75 305.69C121.53 304.11 114.25 301.39 108.55 305.53C108.47 305.581 108.4 305.647 108.345 305.725C108.291 305.803 108.252 305.891 108.231 305.984C108.211 306.077 108.209 306.173 108.226 306.267C108.243 306.36 108.278 306.45 108.33 306.53C111.4 311.26 114.42 313.53 117.56 313.53H117.64C120.25 313.53 122.88 311.9 125.64 308.65C126.77 312.21 128.01 315.59 129.28 318.73C126.12 316.66 122.42 316.99 117.86 319.73C117.761 319.793 117.677 319.876 117.613 319.975C117.549 320.073 117.507 320.184 117.49 320.3C117.478 320.409 117.493 320.519 117.535 320.621C117.577 320.722 117.644 320.811 117.73 320.88C117.96 321.06 121.85 323.99 126.2 323.99C127.87 324.006 129.507 323.522 130.9 322.6C133.361 328.321 136.197 333.873 139.39 339.22C139.454 339.32 139.543 339.403 139.648 339.459C139.753 339.515 139.871 339.543 139.99 339.54C140.151 339.541 140.308 339.492 140.44 339.4C140.616 339.292 140.742 339.12 140.793 338.92C140.843 338.72 140.814 338.508 140.71 338.33C136.524 331.233 132.942 323.796 130 316.1Z" fill="#BA8507"/>
<path opacity="0.5" d="M130 316.1C131.078 316.438 132.2 316.617 133.33 316.63C134.765 316.623 136.181 316.31 137.485 315.712C138.789 315.114 139.95 314.244 140.891 313.161C141.832 312.078 142.531 310.807 142.941 309.432C143.352 308.058 143.464 306.611 143.27 305.19C143.236 305.034 143.146 304.897 143.017 304.805C142.887 304.712 142.728 304.671 142.57 304.69C139.806 304.996 137.144 305.912 134.778 307.374C132.412 308.835 130.401 310.805 128.89 313.14C127.63 309.68 126.45 306 125.46 302.19C127.076 303.145 128.904 303.685 130.78 303.76C131.551 303.762 132.318 303.641 133.05 303.4C136.94 302.11 139.61 297.47 141.92 292.64C141.962 292.552 141.983 292.457 141.983 292.36C141.983 292.263 141.962 292.167 141.92 292.08C141.886 291.993 141.832 291.915 141.763 291.852C141.693 291.79 141.61 291.745 141.52 291.72C133.91 289.55 126.99 296.99 124.81 299.65C124.047 296.424 123.459 293.159 123.05 289.87C124.662 290.178 126.299 290.339 127.94 290.35C131.94 290.35 135.1 289.29 137.24 287.2C139.78 284.73 140.65 281.03 139.77 276.51C139.753 276.423 139.718 276.34 139.667 276.267C139.615 276.194 139.549 276.133 139.473 276.088C139.396 276.043 139.311 276.014 139.223 276.004C139.134 275.994 139.045 276.003 138.96 276.03C130.84 278.19 125.11 284.23 122.77 287.09C122.77 286.5 122.67 285.91 122.63 285.32C122.618 285.172 122.558 285.031 122.46 284.92C122.257 283.812 121.809 282.763 121.148 281.851C120.487 280.939 119.63 280.187 118.64 279.65C116.42 278.55 113.49 278.71 109.95 280.12C109.845 280.161 109.751 280.224 109.673 280.305C109.595 280.386 109.536 280.483 109.5 280.59C109.464 280.693 109.454 280.803 109.469 280.911C109.485 281.019 109.526 281.121 109.59 281.21C109.77 281.45 113.59 286.47 119.31 286.47C119.928 286.468 120.544 286.408 121.15 286.29C121.27 287.917 121.44 289.546 121.66 291.18C119.505 289.715 117.056 288.738 114.484 288.318C111.912 287.899 109.279 288.046 106.77 288.75C106.671 288.774 106.578 288.819 106.498 288.881C106.417 288.943 106.349 289.021 106.3 289.11C106.25 289.195 106.218 289.29 106.206 289.388C106.194 289.486 106.202 289.585 106.23 289.68C108 295.06 111.15 298.45 114.67 298.74C114.83 298.75 114.99 298.75 115.15 298.74C116.95 298.74 119.44 297.92 122.15 294.6C122.813 298.341 123.681 302.044 124.75 305.69C121.53 304.11 114.25 301.39 108.55 305.53C108.47 305.581 108.4 305.647 108.345 305.725C108.291 305.803 108.252 305.891 108.231 305.984C108.211 306.077 108.209 306.173 108.226 306.267C108.243 306.36 108.278 306.45 108.33 306.53C111.4 311.26 114.42 313.53 117.56 313.53H117.64C120.25 313.53 122.88 311.9 125.64 308.65C126.77 312.21 128.01 315.59 129.28 318.73C126.12 316.66 122.42 316.99 117.86 319.73C117.761 319.793 117.677 319.876 117.613 319.975C117.549 320.073 117.507 320.184 117.49 320.3C117.478 320.409 117.493 320.519 117.535 320.621C117.577 320.722 117.644 320.811 117.73 320.88C117.96 321.06 121.85 323.99 126.2 323.99C127.87 324.006 129.507 323.522 130.9 322.6C133.361 328.321 136.197 333.873 139.39 339.22C139.454 339.32 139.543 339.403 139.648 339.459C139.753 339.515 139.871 339.543 139.99 339.54C140.151 339.541 140.308 339.492 140.44 339.4C140.616 339.292 140.742 339.12 140.793 338.92C140.843 338.72 140.814 338.508 140.71 338.33C136.524 331.233 132.942 323.796 130 316.1Z" fill="white"/>
<path d="M157.5 356.239H133.68L131.88 331.609H159.3L157.5 356.239Z" fill="#263238"/>
<path d="M161.07 329.949H130.1V334.119H161.07V329.949Z" fill="#263238"/>
<path d="M147 210.57H92.01C88.1496 210.57 85.02 213.7 85.02 217.56V349.25C85.02 353.111 88.1496 356.24 92.01 356.24H147C150.86 356.24 153.99 353.111 153.99 349.25V217.56C153.99 213.7 150.86 210.57 147 210.57Z" fill="#BA8507"/>
<path opacity="0.6" d="M147 210.57H92.01C88.1496 210.57 85.02 213.7 85.02 217.56V349.25C85.02 353.111 88.1496 356.24 92.01 356.24H147C150.86 356.24 153.99 353.111 153.99 349.25V217.56C153.99 213.7 150.86 210.57 147 210.57Z" fill="black"/>
<path d="M143.65 210.57H88.6599C84.7995 210.57 81.6699 213.7 81.6699 217.56V349.25C81.6699 353.111 84.7995 356.24 88.6599 356.24H143.65C147.51 356.24 150.64 353.111 150.64 349.25V217.56C150.64 213.7 147.51 210.57 143.65 210.57Z" fill="#BA8507"/>
<path opacity="0.3" d="M143.65 210.57H88.6599C84.7995 210.57 81.6699 213.7 81.6699 217.56V349.25C81.6699 353.111 84.7995 356.24 88.6599 356.24H143.65C147.51 356.24 150.64 353.111 150.64 349.25V217.56C150.64 213.7 147.51 210.57 143.65 210.57Z" fill="black"/>
<path d="M150.64 218.59H81.6699V343.77H150.64V218.59Z" fill="#FAFAFA"/>
<path opacity="0.18" d="M150.68 218.33H81.71V343.51H150.68V218.33Z" fill="#BA8507"/>
<path opacity="0.4" d="M106.7 218.601L84.3298 343.781H106.48L128.86 218.601H106.7Z" fill="white"/>
<path opacity="0.4" d="M134.26 218.601L111.89 343.781H122.97L145.34 218.601H134.26Z" fill="white"/>
<path d="M119.27 349.57C119.27 350.185 119.087 350.786 118.746 351.298C118.404 351.809 117.918 352.208 117.35 352.443C116.782 352.679 116.156 352.74 115.553 352.62C114.95 352.5 114.396 352.204 113.961 351.769C113.526 351.334 113.23 350.78 113.11 350.177C112.99 349.573 113.051 348.948 113.287 348.38C113.522 347.812 113.921 347.326 114.432 346.984C114.943 346.642 115.545 346.46 116.16 346.46C116.985 346.46 117.776 346.788 118.359 347.371C118.942 347.954 119.27 348.745 119.27 349.57Z" fill="#BA8507"/>
<path opacity="0.5" d="M119.27 349.57C119.27 350.185 119.087 350.786 118.746 351.298C118.404 351.809 117.918 352.208 117.35 352.443C116.782 352.679 116.156 352.74 115.553 352.62C114.95 352.5 114.396 352.204 113.961 351.769C113.526 351.334 113.23 350.78 113.11 350.177C112.99 349.573 113.051 348.948 113.287 348.38C113.522 347.812 113.921 347.326 114.432 346.984C114.943 346.642 115.545 346.46 116.16 346.46C116.985 346.46 117.776 346.788 118.359 347.371C118.942 347.954 119.27 348.745 119.27 349.57Z" fill="black"/>
<path d="M124.31 215.36C124.917 215.36 125.41 214.868 125.41 214.26C125.41 213.653 124.917 213.16 124.31 213.16C123.702 213.16 123.21 213.653 123.21 214.26C123.21 214.868 123.702 215.36 124.31 215.36Z" fill="#BA8507"/>
<path d="M119.82 215.36H108C107.708 215.36 107.428 215.244 107.222 215.038C107.016 214.832 106.9 214.552 106.9 214.26C106.903 213.969 107.019 213.691 107.225 213.485C107.431 213.28 107.709 213.163 108 213.16H119.81C120.101 213.163 120.379 213.28 120.585 213.485C120.791 213.691 120.907 213.969 120.91 214.26C120.91 214.55 120.795 214.828 120.591 215.034C120.387 215.24 120.11 215.358 119.82 215.36Z" fill="#BA8507"/>
<path opacity="0.5" d="M124.31 215.36C124.917 215.36 125.41 214.868 125.41 214.26C125.41 213.653 124.917 213.16 124.31 213.16C123.702 213.16 123.21 213.653 123.21 214.26C123.21 214.868 123.702 215.36 124.31 215.36Z" fill="black"/>
<path opacity="0.5" d="M119.82 215.36H108C107.708 215.36 107.428 215.244 107.222 215.038C107.016 214.832 106.9 214.552 106.9 214.26C106.903 213.969 107.019 213.691 107.225 213.485C107.431 213.28 107.709 213.163 108 213.16H119.81C120.101 213.163 120.379 213.28 120.585 213.485C120.791 213.691 120.907 213.969 120.91 214.26C120.91 214.55 120.795 214.828 120.591 215.034C120.387 215.24 120.11 215.358 119.82 215.36Z" fill="black"/>
</svg>
